{
	"asset":{
		"generator":"Khronos glTF Blender I/O v4.5.47",
		"version":"2.0"
	},
	"extensionsUsed":[
		"KHR_lights_punctual"
	],
	"extensionsRequired":[
		"KHR_lights_punctual"
	],
	"extensions":{
		"KHR_lights_punctual":{
			"lights":[
				{
					"color":[
						1,
						1,
						1
					],
					"intensity":54351.41306588226,
					"type":"point",
					"name":"Light"
				}
			]
		}
	},
	"scene":0,
	"scenes":[
		{
			"extras":{
				"blosm":{
					"defaultLevels":[
						{
							"levels":4,
							"weight":10
						},
						{
							"levels":5,
							"weight":40
						},
						{
							"levels":6,
							"weight":10
						}
					]
				}
			},
			"name":"Scene",
			"nodes":[
				0,
				1,
				2,
				3,
				4,
				5,
				6,
				7,
				8,
				9
			]
		}
	],
	"nodes":[
		{
			"extensions":{
				"KHR_lights_punctual":{
					"light":0
				}
			},
			"name":"Light",
			"rotation":[
				-0.28416624665260315,
				0.7269423604011536,
				0.34203389286994934,
				0.5232754349708557
			],
			"translation":[
				4.076245307922363,
				5.903861999511719,
				-1.0054539442062378
			]
		},
		{
			"camera":0,
			"name":"Camera",
			"rotation":[
				-0.20997299253940582,
				0.3857799470424652,
				0.09062844514846802,
				0.8937962055206299
			],
			"translation":[
				7.358891487121582,
				4.958309173583984,
				6.925790786743164
			]
		},
		{
			"mesh":0,
			"name":"Cube",
			"scale":[
				0.800000011920929,
				1,
				1
			]
		},
		{
			"mesh":1,
			"name":"Cube.001",
			"scale":[
				0.6000000238418579,
				0.10000002384185791,
				0.6000000238418579
			],
			"translation":[
				0,
				0,
				-1.7999999523162842
			]
		},
		{
			"mesh":2,
			"name":"Cube.002",
			"rotation":[
				0,
				-1,
				0,
				7.549790836947068e-08
			],
			"scale":[
				0.6000000238418579,
				0.10000002384185791,
				0.6000000238418579
			],
			"translation":[
				0,
				0,
				1.7999999523162842
			]
		},
		{
			"mesh":3,
			"name":"Sphere",
			"rotation":[
				-0.2588190734386444,
				0,
				0,
				0.9659258127212524
			],
			"scale":[
				0.30000001192092896,
				0.29999998211860657,
				0.29999998211860657
			],
			"translation":[
				-0.7696858644485474,
				-0.9529603719711304,
				1.2002534866333008
			]
		},
		{
			"mesh":4,
			"name":"Sphere.001",
			"rotation":[
				-0.2588190734386444,
				0,
				0,
				0.9659258127212524
			],
			"scale":[
				0.30000001192092896,
				0.29999998211860657,
				0.29999998211860657
			],
			"translation":[
				0.6392229795455933,
				-0.9529603719711304,
				1.2002534866333008
			]
		},
		{
			"mesh":5,
			"name":"Sphere.002",
			"rotation":[
				0.2588190734386444,
				0,
				0,
				0.9659258127212524
			],
			"scale":[
				0.30000001192092896,
				0.29999998211860657,
				0.29999998211860657
			],
			"translation":[
				0.6392229795455933,
				-0.9529603719711304,
				-1.148404836654663
			]
		},
		{
			"mesh":6,
			"name":"Sphere.003",
			"rotation":[
				0.2588190734386444,
				0,
				0,
				0.9659258127212524
			],
			"scale":[
				0.30000001192092896,
				0.29999998211860657,
				0.29999998211860657
			],
			"translation":[
				-0.7696858644485474,
				-0.9529603719711304,
				-1.148404836654663
			]
		},
		{
			"mesh":7,
			"name":"Cube.003",
			"scale":[
				0.20000000298023224,
				0.6000000238418579,
				0.699999988079071
			],
			"translation":[
				0.7559723258018494,
				0,
				0
			]
		}
	],
	"cameras":[
		{
			"name":"Camera",
			"perspective":{
				"aspectRatio":1.7777777777777777,
				"yfov":0.39959652046304894,
				"zfar":100,
				"znear":0.10000000149011612
			},
			"type":"perspective"
		}
	],
	"animations":[
		{
			"channels":[
				{
					"sampler":0,
					"target":{
						"node":0,
						"path":"translation"
					}
				},
				{
					"sampler":1,
					"target":{
						"node":0,
						"path":"rotation"
					}
				},
				{
					"sampler":2,
					"target":{
						"node":0,
						"path":"scale"
					}
				}
			],
			"name":"Action",
			"samplers":[
				{
					"input":33,
					"interpolation":"STEP",
					"output":34
				},
				{
					"input":33,
					"interpolation":"LINEAR",
					"output":35
				},
				{
					"input":33,
					"interpolation":"STEP",
					"output":36
				}
			]
		},
		{
			"channels":[
				{
					"sampler":0,
					"target":{
						"node":2,
						"path":"translation"
					}
				},
				{
					"sampler":1,
					"target":{
						"node":2,
						"path":"rotation"
					}
				},
				{
					"sampler":2,
					"target":{
						"node":2,
						"path":"scale"
					}
				}
			],
			"name":"Action.001",
			"samplers":[
				{
					"input":37,
					"interpolation":"LINEAR",
					"output":38
				},
				{
					"input":33,
					"interpolation":"STEP",
					"output":39
				},
				{
					"input":33,
					"interpolation":"STEP",
					"output":40
				}
			]
		},
		{
			"channels":[
				{
					"sampler":0,
					"target":{
						"node":3,
						"path":"translation"
					}
				},
				{
					"sampler":1,
					"target":{
						"node":3,
						"path":"rotation"
					}
				},
				{
					"sampler":2,
					"target":{
						"node":3,
						"path":"scale"
					}
				}
			],
			"name":"Action.002",
			"samplers":[
				{
					"input":37,
					"interpolation":"LINEAR",
					"output":41
				},
				{
					"input":37,
					"interpolation":"LINEAR",
					"output":42
				},
				{
					"input":33,
					"interpolation":"STEP",
					"output":43
				}
			]
		},
		{
			"channels":[
				{
					"sampler":0,
					"target":{
						"node":4,
						"path":"translation"
					}
				},
				{
					"sampler":1,
					"target":{
						"node":4,
						"path":"rotation"
					}
				},
				{
					"sampler":2,
					"target":{
						"node":4,
						"path":"scale"
					}
				}
			],
			"name":"Action.003",
			"samplers":[
				{
					"input":37,
					"interpolation":"LINEAR",
					"output":44
				},
				{
					"input":37,
					"interpolation":"LINEAR",
					"output":45
				},
				{
					"input":33,
					"interpolation":"STEP",
					"output":43
				}
			]
		},
		{
			"channels":[
				{
					"sampler":0,
					"target":{
						"node":5,
						"path":"translation"
					}
				},
				{
					"sampler":1,
					"target":{
						"node":5,
						"path":"rotation"
					}
				},
				{
					"sampler":2,
					"target":{
						"node":5,
						"path":"scale"
					}
				}
			],
			"name":"Action.004",
			"samplers":[
				{
					"input":37,
					"interpolation":"LINEAR",
					"output":46
				},
				{
					"input":33,
					"interpolation":"STEP",
					"output":47
				},
				{
					"input":33,
					"interpolation":"STEP",
					"output":48
				}
			]
		},
		{
			"channels":[
				{
					"sampler":0,
					"target":{
						"node":6,
						"path":"translation"
					}
				},
				{
					"sampler":1,
					"target":{
						"node":6,
						"path":"rotation"
					}
				},
				{
					"sampler":2,
					"target":{
						"node":6,
						"path":"scale"
					}
				}
			],
			"name":"Action.005",
			"samplers":[
				{
					"input":37,
					"interpolation":"LINEAR",
					"output":49
				},
				{
					"input":33,
					"interpolation":"STEP",
					"output":47
				},
				{
					"input":33,
					"interpolation":"STEP",
					"output":48
				}
			]
		},
		{
			"channels":[
				{
					"sampler":0,
					"target":{
						"node":7,
						"path":"translation"
					}
				},
				{
					"sampler":1,
					"target":{
						"node":7,
						"path":"rotation"
					}
				},
				{
					"sampler":2,
					"target":{
						"node":7,
						"path":"scale"
					}
				}
			],
			"name":"Action.006",
			"samplers":[
				{
					"input":37,
					"interpolation":"LINEAR",
					"output":50
				},
				{
					"input":33,
					"interpolation":"STEP",
					"output":51
				},
				{
					"input":33,
					"interpolation":"STEP",
					"output":48
				}
			]
		},
		{
			"channels":[
				{
					"sampler":0,
					"target":{
						"node":8,
						"path":"translation"
					}
				},
				{
					"sampler":1,
					"target":{
						"node":8,
						"path":"rotation"
					}
				},
				{
					"sampler":2,
					"target":{
						"node":8,
						"path":"scale"
					}
				}
			],
			"name":"Action.007",
			"samplers":[
				{
					"input":37,
					"interpolation":"LINEAR",
					"output":52
				},
				{
					"input":33,
					"interpolation":"STEP",
					"output":51
				},
				{
					"input":33,
					"interpolation":"STEP",
					"output":48
				}
			]
		},
		{
			"channels":[
				{
					"sampler":0,
					"target":{
						"node":9,
						"path":"translation"
					}
				},
				{
					"sampler":1,
					"target":{
						"node":9,
						"path":"rotation"
					}
				},
				{
					"sampler":2,
					"target":{
						"node":9,
						"path":"scale"
					}
				}
			],
			"name":"Action.008",
			"samplers":[
				{
					"input":37,
					"interpolation":"LINEAR",
					"output":53
				},
				{
					"input":33,
					"interpolation":"STEP",
					"output":39
				},
				{
					"input":33,
					"interpolation":"STEP",
					"output":54
				}
			]
		}
	],
	"materials":[
		{
			"doubleSided":true,
			"name":"Material.001",
			"pbrMetallicRoughness":{
				"baseColorFactor":[
					0.015637695789337158,
					0.023474019020795822,
					0.058896295726299286,
					1
				],
				"metallicFactor":0,
				"roughnessFactor":0.5
			}
		},
		{
			"doubleSided":true,
			"name":"Material.004",
			"pbrMetallicRoughness":{
				"baseColorFactor":[
					0.000752414925955236,
					0,
					0.3389397859573364,
					1
				],
				"metallicFactor":0,
				"roughnessFactor":0.5
			}
		},
		{
			"doubleSided":true,
			"name":"Material.003",
			"pbrMetallicRoughness":{
				"baseColorFactor":[
					0.04733405262231827,
					0.04733405262231827,
					0.04733405262231827,
					1
				],
				"metallicFactor":0,
				"roughnessFactor":0.5
			}
		},
		{
			"doubleSided":true,
			"name":"Material.002",
			"pbrMetallicRoughness":{
				"baseColorTexture":{
					"index":0
				},
				"metallicFactor":0,
				"roughnessFactor":0
			}
		}
	],
	"meshes":[
		{
			"name":"Cube.001",
			"primitives":[
				{
					"attributes":{
						"POSITION":0,
						"NORMAL":1,
						"TEXCOORD_0":2
					},
					"indices":3,
					"material":0
				}
			]
		},
		{
			"name":"Cube.002",
			"primitives":[
				{
					"attributes":{
						"POSITION":4,
						"NORMAL":5,
						"TEXCOORD_0":6
					},
					"indices":7,
					"material":1
				}
			]
		},
		{
			"name":"Cube.003",
			"primitives":[
				{
					"attributes":{
						"POSITION":8,
						"NORMAL":9,
						"TEXCOORD_0":10
					},
					"indices":7,
					"material":1
				}
			]
		},
		{
			"name":"Sphere",
			"primitives":[
				{
					"attributes":{
						"POSITION":11,
						"NORMAL":12,
						"TEXCOORD_0":13,
						"TANGENT":14
					},
					"indices":15,
					"material":2
				}
			]
		},
		{
			"name":"Sphere.001",
			"primitives":[
				{
					"attributes":{
						"POSITION":16,
						"NORMAL":17,
						"TEXCOORD_0":18,
						"TANGENT":19
					},
					"indices":15,
					"material":2
				}
			]
		},
		{
			"name":"Sphere.002",
			"primitives":[
				{
					"attributes":{
						"POSITION":20,
						"NORMAL":21,
						"TEXCOORD_0":22,
						"TANGENT":23
					},
					"indices":15,
					"material":2
				}
			]
		},
		{
			"name":"Sphere.003",
			"primitives":[
				{
					"attributes":{
						"POSITION":24,
						"NORMAL":25,
						"TEXCOORD_0":26,
						"TANGENT":27
					},
					"indices":15,
					"material":2
				}
			]
		},
		{
			"name":"Cube.004",
			"primitives":[
				{
					"attributes":{
						"POSITION":28,
						"NORMAL":29,
						"TEXCOORD_0":30,
						"TANGENT":31
					},
					"indices":32,
					"material":3
				}
			]
		}
	],
	"textures":[
		{
			"sampler":0,
			"source":0
		}
	],
	"images":[
		{
			"mimeType":"image/png",
			"name":"Untitled.001",
			"uri":"../../assets/player/face.png"
		}
	],
	"accessors":[
		{
			"bufferView":0,
			"componentType":5126,
			"count":48,
			"max":[
				1,
				1,
				1
			],
			"min":[
				-1,
				-1,
				-1
			],
			"type":"VEC3"
		},
		{
			"bufferView":1,
			"componentType":5126,
			"count":48,
			"type":"VEC3"
		},
		{
			"bufferView":2,
			"componentType":5126,
			"count":48,
			"type":"VEC2"
		},
		{
			"bufferView":3,
			"componentType":5123,
			"count":84,
			"type":"SCALAR"
		},
		{
			"bufferView":4,
			"componentType":5126,
			"count":36,
			"max":[
				1,
				1,
				1
			],
			"min":[
				-1,
				-1,
				-1
			],
			"type":"VEC3"
		},
		{
			"bufferView":5,
			"componentType":5126,
			"count":36,
			"type":"VEC3"
		},
		{
			"bufferView":6,
			"componentType":5126,
			"count":36,
			"type":"VEC2"
		},
		{
			"bufferView":7,
			"componentType":5123,
			"count":60,
			"type":"SCALAR"
		},
		{
			"bufferView":8,
			"componentType":5126,
			"count":36,
			"max":[
				1,
				1,
				1
			],
			"min":[
				-1,
				-1,
				-1
			],
			"type":"VEC3"
		},
		{
			"bufferView":9,
			"componentType":5126,
			"count":36,
			"type":"VEC3"
		},
		{
			"bufferView":10,
			"componentType":5126,
			"count":36,
			"type":"VEC2"
		},
		{
			"bufferView":11,
			"componentType":5126,
			"count":1135,
			"max":[
				0.9999997019767761,
				1,
				0.9999993443489075
			],
			"min":[
				-0.9999990463256836,
				0,
				-1
			],
			"type":"VEC3"
		},
		{
			"bufferView":12,
			"componentType":5126,
			"count":1135,
			"type":"VEC3"
		},
		{
			"bufferView":13,
			"componentType":5126,
			"count":1135,
			"type":"VEC2"
		},
		{
			"bufferView":14,
			"componentType":5126,
			"count":1135,
			"type":"VEC4"
		},
		{
			"bufferView":15,
			"componentType":5123,
			"count":5946,
			"type":"SCALAR"
		},
		{
			"bufferView":16,
			"componentType":5126,
			"count":1135,
			"max":[
				0.9999997019767761,
				1,
				0.9999993443489075
			],
			"min":[
				-0.9999990463256836,
				0,
				-1
			],
			"type":"VEC3"
		},
		{
			"bufferView":17,
			"componentType":5126,
			"count":1135,
			"type":"VEC3"
		},
		{
			"bufferView":18,
			"componentType":5126,
			"count":1135,
			"type":"VEC2"
		},
		{
			"bufferView":19,
			"componentType":5126,
			"count":1135,
			"type":"VEC4"
		},
		{
			"bufferView":20,
			"componentType":5126,
			"count":1135,
			"max":[
				0.9999997019767761,
				1,
				0.9999993443489075
			],
			"min":[
				-0.9999990463256836,
				0,
				-1
			],
			"type":"VEC3"
		},
		{
			"bufferView":21,
			"componentType":5126,
			"count":1135,
			"type":"VEC3"
		},
		{
			"bufferView":22,
			"componentType":5126,
			"count":1135,
			"type":"VEC2"
		},
		{
			"bufferView":23,
			"componentType":5126,
			"count":1135,
			"type":"VEC4"
		},
		{
			"bufferView":24,
			"componentType":5126,
			"count":1135,
			"max":[
				0.9999997019767761,
				1,
				0.9999993443489075
			],
			"min":[
				-0.9999990463256836,
				0,
				-1
			],
			"type":"VEC3"
		},
		{
			"bufferView":25,
			"componentType":5126,
			"count":1135,
			"type":"VEC3"
		},
		{
			"bufferView":26,
			"componentType":5126,
			"count":1135,
			"type":"VEC2"
		},
		{
			"bufferView":27,
			"componentType":5126,
			"count":1135,
			"type":"VEC4"
		},
		{
			"bufferView":28,
			"componentType":5126,
			"count":202,
			"max":[
				1,
				1,
				1
			],
			"min":[
				-1,
				-1,
				-1
			],
			"type":"VEC3"
		},
		{
			"bufferView":29,
			"componentType":5126,
			"count":202,
			"type":"VEC3"
		},
		{
			"bufferView":30,
			"componentType":5126,
			"count":202,
			"type":"VEC2"
		},
		{
			"bufferView":31,
			"componentType":5126,
			"count":202,
			"type":"VEC4"
		},
		{
			"bufferView":32,
			"componentType":5123,
			"count":900,
			"type":"SCALAR"
		},
		{
			"bufferView":33,
			"componentType":5126,
			"count":2,
			"max":[
				4.166666666666667
			],
			"min":[
				0.041666666666666664
			],
			"type":"SCALAR"
		},
		{
			"bufferView":34,
			"componentType":5126,
			"count":2,
			"type":"VEC3"
		},
		{
			"bufferView":35,
			"componentType":5126,
			"count":2,
			"type":"VEC4"
		},
		{
			"bufferView":36,
			"componentType":5126,
			"count":2,
			"type":"VEC3"
		},
		{
			"bufferView":37,
			"componentType":5126,
			"count":100,
			"max":[
				4.166666666666667
			],
			"min":[
				0.041666666666666664
			],
			"type":"SCALAR"
		},
		{
			"bufferView":38,
			"componentType":5126,
			"count":100,
			"type":"VEC3"
		},
		{
			"bufferView":39,
			"componentType":5126,
			"count":2,
			"type":"VEC4"
		},
		{
			"bufferView":40,
			"componentType":5126,
			"count":2,
			"type":"VEC3"
		},
		{
			"bufferView":41,
			"componentType":5126,
			"count":100,
			"type":"VEC3"
		},
		{
			"bufferView":42,
			"componentType":5126,
			"count":100,
			"type":"VEC4"
		},
		{
			"bufferView":43,
			"componentType":5126,
			"count":2,
			"type":"VEC3"
		},
		{
			"bufferView":44,
			"componentType":5126,
			"count":100,
			"type":"VEC3"
		},
		{
			"bufferView":45,
			"componentType":5126,
			"count":100,
			"type":"VEC4"
		},
		{
			"bufferView":46,
			"componentType":5126,
			"count":100,
			"type":"VEC3"
		},
		{
			"bufferView":47,
			"componentType":5126,
			"count":2,
			"type":"VEC4"
		},
		{
			"bufferView":48,
			"componentType":5126,
			"count":2,
			"type":"VEC3"
		},
		{
			"bufferView":49,
			"componentType":5126,
			"count":100,
			"type":"VEC3"
		},
		{
			"bufferView":50,
			"componentType":5126,
			"count":100,
			"type":"VEC3"
		},
		{
			"bufferView":51,
			"componentType":5126,
			"count":2,
			"type":"VEC4"
		},
		{
			"bufferView":52,
			"componentType":5126,
			"count":100,
			"type":"VEC3"
		},
		{
			"bufferView":53,
			"componentType":5126,
			"count":100,
			"type":"VEC3"
		},
		{
			"bufferView":54,
			"componentType":5126,
			"count":2,
			"type":"VEC3"
		}
	],
	"bufferViews":[
		{
			"buffer":0,
			"byteLength":576,
			"byteOffset":0,
			"target":34962
		},
		{
			"buffer":0,
			"byteLength":576,
			"byteOffset":576,
			"target":34962
		},
		{
			"buffer":0,
			"byteLength":384,
			"byteOffset":1152,
			"target":34962
		},
		{
			"buffer":0,
			"byteLength":168,
			"byteOffset":1536,
			"target":34963
		},
		{
			"buffer":0,
			"byteLength":432,
			"byteOffset":1704,
			"target":34962
		},
		{
			"buffer":0,
			"byteLength":432,
			"byteOffset":2136,
			"target":34962
		},
		{
			"buffer":0,
			"byteLength":288,
			"byteOffset":2568,
			"target":34962
		},
		{
			"buffer":0,
			"byteLength":120,
			"byteOffset":2856,
			"target":34963
		},
		{
			"buffer":0,
			"byteLength":432,
			"byteOffset":2976,
			"target":34962
		},
		{
			"buffer":0,
			"byteLength":432,
			"byteOffset":3408,
			"target":34962
		},
		{
			"buffer":0,
			"byteLength":288,
			"byteOffset":3840,
			"target":34962
		},
		{
			"buffer":0,
			"byteLength":13620,
			"byteOffset":4128,
			"target":34962
		},
		{
			"buffer":0,
			"byteLength":13620,
			"byteOffset":17748,
			"target":34962
		},
		{
			"buffer":0,
			"byteLength":9080,
			"byteOffset":31368,
			"target":34962
		},
		{
			"buffer":0,
			"byteLength":18160,
			"byteOffset":40448,
			"target":34962
		},
		{
			"buffer":0,
			"byteLength":11892,
			"byteOffset":58608,
			"target":34963
		},
		{
			"buffer":0,
			"byteLength":13620,
			"byteOffset":70500,
			"target":34962
		},
		{
			"buffer":0,
			"byteLength":13620,
			"byteOffset":84120,
			"target":34962
		},
		{
			"buffer":0,
			"byteLength":9080,
			"byteOffset":97740,
			"target":34962
		},
		{
			"buffer":0,
			"byteLength":18160,
			"byteOffset":106820,
			"target":34962
		},
		{
			"buffer":0,
			"byteLength":13620,
			"byteOffset":124980,
			"target":34962
		},
		{
			"buffer":0,
			"byteLength":13620,
			"byteOffset":138600,
			"target":34962
		},
		{
			"buffer":0,
			"byteLength":9080,
			"byteOffset":152220,
			"target":34962
		},
		{
			"buffer":0,
			"byteLength":18160,
			"byteOffset":161300,
			"target":34962
		},
		{
			"buffer":0,
			"byteLength":13620,
			"byteOffset":179460,
			"target":34962
		},
		{
			"buffer":0,
			"byteLength":13620,
			"byteOffset":193080,
			"target":34962
		},
		{
			"buffer":0,
			"byteLength":9080,
			"byteOffset":206700,
			"target":34962
		},
		{
			"buffer":0,
			"byteLength":18160,
			"byteOffset":215780,
			"target":34962
		},
		{
			"buffer":0,
			"byteLength":2424,
			"byteOffset":233940,
			"target":34962
		},
		{
			"buffer":0,
			"byteLength":2424,
			"byteOffset":236364,
			"target":34962
		},
		{
			"buffer":0,
			"byteLength":1616,
			"byteOffset":238788,
			"target":34962
		},
		{
			"buffer":0,
			"byteLength":3232,
			"byteOffset":240404,
			"target":34962
		},
		{
			"buffer":0,
			"byteLength":1800,
			"byteOffset":243636,
			"target":34963
		},
		{
			"buffer":0,
			"byteLength":8,
			"byteOffset":245436
		},
		{
			"buffer":0,
			"byteLength":24,
			"byteOffset":245444
		},
		{
			"buffer":0,
			"byteLength":32,
			"byteOffset":245468
		},
		{
			"buffer":0,
			"byteLength":24,
			"byteOffset":245500
		},
		{
			"buffer":0,
			"byteLength":400,
			"byteOffset":245524
		},
		{
			"buffer":0,
			"byteLength":1200,
			"byteOffset":245924
		},
		{
			"buffer":0,
			"byteLength":32,
			"byteOffset":247124
		},
		{
			"buffer":0,
			"byteLength":24,
			"byteOffset":247156
		},
		{
			"buffer":0,
			"byteLength":1200,
			"byteOffset":247180
		},
		{
			"buffer":0,
			"byteLength":1600,
			"byteOffset":248380
		},
		{
			"buffer":0,
			"byteLength":24,
			"byteOffset":249980
		},
		{
			"buffer":0,
			"byteLength":1200,
			"byteOffset":250004
		},
		{
			"buffer":0,
			"byteLength":1600,
			"byteOffset":251204
		},
		{
			"buffer":0,
			"byteLength":1200,
			"byteOffset":252804
		},
		{
			"buffer":0,
			"byteLength":32,
			"byteOffset":254004
		},
		{
			"buffer":0,
			"byteLength":24,
			"byteOffset":254036
		},
		{
			"buffer":0,
			"byteLength":1200,
			"byteOffset":254060
		},
		{
			"buffer":0,
			"byteLength":1200,
			"byteOffset":255260
		},
		{
			"buffer":0,
			"byteLength":32,
			"byteOffset":256460
		},
		{
			"buffer":0,
			"byteLength":1200,
			"byteOffset":256492
		},
		{
			"buffer":0,
			"byteLength":1200,
			"byteOffset":257692
		},
		{
			"buffer":0,
			"byteLength":24,
			"byteOffset":258892
		}
	],
	"samplers":[
		{
			"magFilter":9729,
			"minFilter":9987
		}
	],
	"buffers":[
		{
			"byteLength":258916,
			"uri":"player-9d7814d9e852b43e64136ffeb7705132.bin"
		}
	]
}
